<svg xmlns="http://www.w3.org/2000/svg" xmlns:xlink="http://www.w3.org/1999/xlink" width="1920" height="1080" viewBox="0 0 1920 1080">
  <defs>
    <clipPath id="clip-Chapter_1.1_-_Signup">
      <rect width="1920" height="1080"/>
    </clipPath>
  </defs>
  <g id="Chapter_1.1_-_Signup" data-name="Chapter 1.1 - Signup" clip-path="url(#clip-Chapter_1.1_-_Signup)">
    <rect width="1920" height="1080" fill="#fff"/>
    <rect id="Rectangle_1" data-name="Rectangle 1" width="1920" height="1080" fill="#1A1714"/>
    <g id="Arrows" transform="translate(860.922 848.557) rotate(-180)">
      <path id="Line" d="M0,0H142.93c9.108,0,16.492,5.584,16.492,12.473V201.641c0,6.888-7.384,12.473-16.492,12.473H2.261" transform="translate(8 7)" fill="none" stroke="#e2515c" stroke-linecap="round" stroke-miterlimit="10" stroke-width="2"/>
    </g>
    <g id="Group_165" data-name="Group 165">
      <g id="Terminal" transform="translate(86.071 180.557)">
        <rect id="Shape" width="175.422" height="65.783" rx="32.892" fill="#1A1714" stroke="#e2515c" stroke-linejoin="round" stroke-width="2"/>
      </g>
      <text id="Signup" transform="translate(174 221)" fill="#f2f2f2" font-size="22" font-family="OpenSans-Regular, Open Sans"><tspan x="-35.089" y="0">Signup</tspan></text>
    </g>
    <g id="Group_" data-name="Group " transform="translate(-257.218 615.078) rotate(-90)">
      <path id="Line-2" data-name="Line" d="M19.067,0h-78.36C-63.549,0-67,8.373-67,18.7V211.955" transform="translate(166 431)" fill="none" stroke="#e2515c" stroke-linecap="round" stroke-miterlimit="10" stroke-width="2"/>
      <path id="Shape-2" data-name="Shape" d="M12.758.138A1,1,0,0,1,14.263,1V15.353a1,1,0,0,1-1.505.863L.495,9.04a1,1,0,0,1,0-1.726Z" transform="translate(90.822 647.218) rotate(-90)" fill="#e2515c"/>
    </g>
    <g id="_1" data-name="#1" transform="translate(181.782 245.34) rotate(90)">
      <rect id="Rectangle" width="109.816" height="2" transform="translate(1 7)" fill="#e2515c"/>
      <path id="Shape-3" data-name="Shape" d="M1.4.349A1,1,0,0,0,0,1.264V12.736a1,1,0,0,0,1.4.915L14.382,7.915a1,1,0,0,0,0-1.829Z" transform="translate(96.816 1)" fill="#e2515c"/>
    </g>
    <g id="Group_160" data-name="Group 160" transform="translate(-218 -3.128)">
      <g id="Process" transform="translate(293.504 370.784)">
        <rect id="Shape-4" data-name="Shape" width="196.556" height="62.355" fill="#1A1714" stroke="#e2515c" stroke-linejoin="round" stroke-width="2"/>
      </g>
      <text id="Create_Username" data-name="Create Username" transform="translate(392 409)" fill="#f2f2f2" font-size="20" font-family="OpenSans-Regular, Open Sans"><tspan x="-81.455" y="0">Create Username</tspan></text>
    </g>
    <g id="_1-2" data-name="#1" transform="translate(267.06 390.834)">
      <g id="Group_179" data-name="Group 179">
        <g id="Group_180" data-name="Group 180">
          <path id="Path_" data-name="Path " d="M5.174,8H112.138" transform="translate(-0.174)" fill="none" stroke="#e2515c" stroke-width="2" stroke-dasharray="8 8"/>
          <path id="Shape-5" data-name="Shape" d="M12.758.138A1,1,0,0,1,14.263,1V15.353a1,1,0,0,1-1.505.863L.495,9.04a1,1,0,0,1,0-1.726Z" transform="translate(122.94 16.177) rotate(180)" fill="#e2515c"/>
        </g>
      </g>
    </g>
    <g id="Group_170" data-name="Group 170" transform="translate(99.711 -154.326)">
      <g id="Output" transform="translate(286.289 521.982)">
        <path id="Shape-6" data-name="Shape" d="M24.086,0H216.772L192.686,62.355H0Z" fill="#1A1714" stroke="#e2515c" stroke-linejoin="round" stroke-width="2"/>
      </g>
      <text id="Username_Taken" data-name="Username Taken" transform="translate(392 561.37)" fill="#f2f2f2" font-size="20" font-family="OpenSans-Regular, Open Sans"><tspan x="-78.042" y="0">Username Taken</tspan></text>
    </g>
    <g id="_1-3" data-name="#1" transform="translate(588.94 390.833)">
      <g id="Group_176" data-name="Group 176" transform="translate(1 -0.177)">
        <rect id="Rectangle-2" data-name="Rectangle" width="118.349" height="2" transform="translate(0 7.177)" fill="#e2515c"/>
        <path id="Shape-7" data-name="Shape" d="M12.758.138A1,1,0,0,1,14.263,1V15.353a1,1,0,0,1-1.505.863L.495,9.04a1,1,0,0,1,0-1.726Z" transform="translate(120.789 16.354) rotate(180)" fill="#e2515c"/>
      </g>
    </g>
    <g id="Group_164" data-name="Group 164" transform="translate(421.904 -3.129)">
      <g id="Process-2" data-name="Process" transform="translate(293.504 370.784)">
        <rect id="Shape-8" data-name="Shape" width="196.556" height="62.355" fill="#1A1714" stroke="#e2515c" stroke-linejoin="round" stroke-width="2"/>
      </g>
      <text id="New_Username" data-name="New Username" transform="translate(392 409)" fill="#f2f2f2" font-size="20" font-family="OpenSans-Regular, Open Sans"><tspan x="-71.68" y="0">New Username</tspan></text>
    </g>
    <g id="_16" data-name="#16" transform="translate(821.687 427.511) rotate(90)">
      <path id="Line-3" data-name="Line" d="M0,0H78.637c4.1,0,7.43,8.279,7.43,18.491v194.16" transform="translate(2.5 8)" fill="none" stroke="#e2515c" stroke-linecap="round" stroke-miterlimit="10" stroke-width="2"/>
      <path id="Shape-9" data-name="Shape" d="M1.505.138A1,1,0,0,0,0,1V15.353a1,1,0,0,0,1.505.863L13.768,9.04a1,1,0,0,0,0-1.726Z" transform="translate(96.746 209.652) rotate(90)" fill="#e2515c"/>
    </g>
    <g id="Group_175" data-name="Group 175" transform="translate(102.604 114.221)">
      <g id="Process-3" data-name="Process" transform="translate(293.504 370.784)">
        <rect id="Shape-10" data-name="Shape" width="196.556" height="62.355" fill="#1A1714" stroke="#e2515c" stroke-linejoin="round" stroke-width="2"/>
      </g>
      <text id="Create_Password" data-name="Create Password" transform="translate(392 409)" fill="#f2f2f2" font-size="20" font-family="OpenSans-Regular, Open Sans"><tspan x="-78.052" y="0">Create Password</tspan></text>
    </g>
    <g id="Group_163" data-name="Group 163" transform="translate(512.079 179.627)">
      <g id="Decision" transform="translate(105.921 479.373)">
        <rect id="Shape-11" data-name="Shape" width="106.774" height="106.774" transform="translate(75.5 0) rotate(45)" fill="#1A1714" stroke="#e2515c" stroke-linejoin="round" stroke-width="2"/>
      </g>
      <text id="Remember_Password" data-name="Remember
Password" transform="translate(181 549)" fill="#f2f2f2" font-size="20" font-family="OpenSans-Regular, Open Sans"><tspan x="-51.826" y="0">Remember</tspan><tspan x="-44.951" y="22">Password</tspan></text>
    </g>
    <g id="Group_2" data-name="Group " transform="translate(63.386 834.235) rotate(-90)">
      <path id="Line-4" data-name="Line" d="M120.874,0H-50.175C-59.467,0-67,4.419-67,9.869V111.853" transform="translate(166 431)" fill="none" stroke="#e2515c" stroke-linecap="round" stroke-miterlimit="10" stroke-width="2"/>
      <path id="Shape-12" data-name="Shape" d="M12.758.138A1,1,0,0,1,14.263,1V15.353a1,1,0,0,1-1.505.863L.495,9.04a1,1,0,0,1,0-1.726Z" transform="translate(90.822 547.117) rotate(-90)" fill="#e2515c"/>
    </g>
    <g id="Group_3" data-name="Group " transform="translate(900.746 692.886) rotate(180)">
      <path id="Line-5" data-name="Line" d="M74.849,61.231H6.7c-3.7,0-6.7-2.419-6.7-5.4V0" transform="translate(8.178 4.263)" fill="none" stroke="#e2515c" stroke-linecap="round" stroke-miterlimit="10" stroke-width="2"/>
      <path id="Shape-13" data-name="Shape" d="M12.758,16.216a1,1,0,0,0,1.505-.863V1A1,1,0,0,0,12.758.138L.495,7.314a1,1,0,0,0,0,1.726Z" transform="translate(16.354) rotate(90)" fill="#e2515c"/>
    </g>
    <g id="Group_4" data-name="Group " transform="translate(900.746 841.557) rotate(180)">
      <path id="Line-6" data-name="Line" d="M74.849,0H6.7C3,0,0,2.385,0,5.326v55.04" transform="translate(8.178 0)" fill="none" stroke="#e2515c" stroke-linecap="round" stroke-miterlimit="10" stroke-width="2"/>
      <path id="Shape-14" data-name="Shape" d="M12.758.138A1,1,0,0,1,14.263,1V15.353a1,1,0,0,1-1.505.863L.495,9.04a1,1,0,0,1,0-1.726Z" transform="translate(0 64.629) rotate(-90)" fill="#e2515c"/>
    </g>
    <g id="Group_181" data-name="Group 181" transform="translate(548.418 332.539)">
      <g id="Process-4" data-name="Process" transform="translate(293.504 370.784)">
        <rect id="Shape-15" data-name="Shape" width="196.556" height="62.355" fill="#1A1714" stroke="#e2515c" stroke-linejoin="round" stroke-width="2"/>
      </g>
      <text id="Connect_to_RP" data-name="Connect to RP" transform="translate(392 409)" fill="#f2f2f2" font-size="20" font-family="OpenSans-Regular, Open Sans"><tspan x="-65.493" y="0">Connect to RP</tspan></text>
    </g>
    <g id="_1-4" data-name="#1" transform="translate(1037.479 726.501)">
      <g id="Group_176-2" data-name="Group 176" transform="translate(1 -0.177)">
        <rect id="Rectangle-3" data-name="Rectangle" width="118.349" height="2" transform="translate(0 7.177)" fill="#e2515c"/>
        <path id="Shape-16" data-name="Shape" d="M12.758.138A1,1,0,0,1,14.263,1V15.353a1,1,0,0,1-1.505.863L.495,9.04a1,1,0,0,1,0-1.726Z" transform="translate(120.789 16.354) rotate(180)" fill="#e2515c"/>
      </g>
    </g>
    <g id="Group_162" data-name="Group 162" transform="translate(622.652 279.424)">
      <g id="Off-Page_Connector" data-name="Off-Page Connector" transform="translate(544.419 423.899)">
        <path id="Shape-17" data-name="Shape" d="M0,0H104.1V69.4L52.05,104.1,0,69.4Z" fill="#1A1714" stroke="#e2515c" stroke-linecap="round" stroke-linejoin="round" stroke-width="2"/>
      </g>
      <text id="Chapter_1.2" data-name="Chapter
1.2" transform="translate(596 459)" fill="#f2f2f2" font-size="20" font-family="OpenSans-Regular, Open Sans"><tspan x="-37.358" y="0">Chapter</tspan><tspan x="-14.097" y="28">1.2</tspan></text>
    </g>
  </g>
</svg>
