<svg xmlns="http://www.w3.org/2000/svg" xmlns:xlink="http://www.w3.org/1999/xlink" width="1920" height="1080" viewBox="0 0 1920 1080">
  <defs>
    <clipPath id="clip-Chapter_5_-_Easter_Egg">
      <rect width="1920" height="1080"/>
    </clipPath>
  </defs>
  <g id="Chapter_5_-_Easter_Egg" data-name="Chapter 5 - Easter Egg" clip-path="url(#clip-Chapter_5_-_Easter_Egg)">
    <rect width="1920" height="1080" fill="#fff"/>
    <rect id="Rectangle_1" data-name="Rectangle 1" width="1920" height="1080" fill="#1A1714"/>
    <g id="Arrows" transform="translate(1038.056 437.978) rotate(180)">
      <path id="Line" d="M0,0H152.015c9.687,0,17.54,5.711,17.54,12.755V206.2c0,7.044-7.853,12.755-17.54,12.755H2.4" transform="translate(8 7)" fill="none" stroke="#e2515c" stroke-linecap="round" stroke-miterlimit="10" stroke-width="2"/>
      <path id="Shape" d="M-1.409-.174A1,1,0,0,1,0,.738V13.26a1,1,0,0,1-1.409.913L-15.384,7.912a1,1,0,0,1,0-1.825Z" transform="translate(16 218.957)" fill="#e2515c"/>
      <path id="Shape-2" data-name="Shape" d="M-1.409-.174A1,1,0,0,1,0,.738V13.26a1,1,0,0,1-1.409.913L-15.384,7.912a1,1,0,0,1,0-1.825Z" transform="translate(17)" fill="#e2515c"/>
    </g>
    <g id="Group_165" data-name="Group 165">
      <g id="Terminal" transform="translate(86.071 180.557)">
        <rect id="Shape-3" data-name="Shape" width="175.422" height="65.783" rx="32.892" fill="#1A1714" stroke="#e2515c" stroke-linejoin="round" stroke-width="2"/>
      </g>
      <text id="Easter_Egg" data-name="Easter Egg" transform="translate(174 221)" fill="#f2f2f2" font-size="21" font-family="OpenSans-Regular, Open Sans"><tspan x="-50.644" y="0">Easter Egg</tspan></text>
    </g>
    <g id="_1" data-name="#1" transform="translate(181.782 245.34) rotate(90)">
      <rect id="Rectangle" width="92.232" height="2" transform="translate(1 7)" fill="#e2515c"/>
      <path id="Shape-4" data-name="Shape" d="M1.4.349A1,1,0,0,0,0,1.264V12.736a1,1,0,0,0,1.4.915L14.382,7.915a1,1,0,0,0,0-1.829Z" transform="translate(79.232 1)" fill="#e2515c"/>
    </g>
    <g id="Group_191" data-name="Group 191" transform="translate(-218 -24.228)">
      <g id="Process" transform="translate(293.504 370.784)">
        <path id="Shape-5" data-name="Shape" d="M3,0H193.556a3,3,0,0,1,3,3V62.355a0,0,0,0,1,0,0H0a0,0,0,0,1,0,0V3A3,3,0,0,1,3,0Z" fill="#1A1714" stroke="#e2515c" stroke-linejoin="round" stroke-width="2"/>
      </g>
      <text id="View_Unsolved_EE" data-name="View Unsolved EE" transform="translate(392 409)" fill="#f2f2f2" font-size="20" font-family="OpenSans-Regular, Open Sans"><tspan x="-81.494" y="0">View Unsolved EE</tspan></text>
    </g>
    <g id="_1-2" data-name="#1" transform="translate(181.782 407.912) rotate(90)">
      <rect id="Rectangle-2" data-name="Rectangle" width="221.075" height="2" transform="translate(1 7)" fill="#e2515c"/>
      <path id="Shape-6" data-name="Shape" d="M1.4.349A1,1,0,0,0,0,1.264V12.736a1,1,0,0,0,1.4.915L14.382,7.915a1,1,0,0,0,0-1.829Z" transform="translate(208.075 1)" fill="#e2515c"/>
    </g>
    <g id="Group_242" data-name="Group 242" transform="translate(-218 268.344)">
      <g id="Process-2" data-name="Process" transform="translate(293.504 370.784)">
        <path id="Shape-7" data-name="Shape" d="M3,0H193.556a3,3,0,0,1,3,3V62.355a0,0,0,0,1,0,0H0a0,0,0,0,1,0,0V3A3,3,0,0,1,3,0Z" fill="#1A1714" stroke="#e2515c" stroke-linejoin="round" stroke-width="2"/>
      </g>
      <text id="Select_Filters" data-name="Select Filters" transform="translate(392 409)" fill="#f2f2f2" font-size="20" font-family="OpenSans-Regular, Open Sans"><tspan x="-58.34" y="0">Select Filters</tspan></text>
    </g>
    <g id="Group_" data-name="Group " transform="translate(429.663 736.883) rotate(90)">
      <path id="Shape-8" data-name="Shape" d="M1.409.089A1,1,0,0,0,0,1V13.522a1,1,0,0,0,1.409.913L15.384,8.174a1,1,0,0,0,0-1.825Z" transform="translate(0 15.975) rotate(-90)" fill="#e2515c"/>
    </g>
    <g id="_9" data-name="#9" transform="translate(311.688 591.077)">
      <path id="Line-2" data-name="Line" d="M0,0H-52c-3.314,0-6,3.9-6,8.707v133.5c0,4.809,2.686,8.707,6,8.707H-.822" transform="translate(112 2.15)" fill="none" stroke="#e2515c" stroke-linecap="round" stroke-miterlimit="10" stroke-width="2"/>
      <path id="Shape-9" data-name="Shape" d="M1.409-.174A1,1,0,0,0,0,.738V13.26a1,1,0,0,0,1.409.913L15.384,7.912a1,1,0,0,0,0-1.825Z" transform="translate(102 71.936)" fill="#e2515c"/>
      <path id="Shape-10" data-name="Shape" d="M1.409-.174A1,1,0,0,0,0,.738V13.26a1,1,0,0,0,1.409.913L15.384,7.912a1,1,0,0,0,0-1.825Z" transform="translate(102 -4.85)" fill="#e2515c"/>
      <path id="Line-3" data-name="Line" d="M-58,66.3v83.038c0,5.927,2.686,10.733,6,10.733H-.822" transform="translate(112 67.127)" fill="none" stroke="#e2515c" stroke-linecap="round" stroke-miterlimit="10" stroke-width="2"/>
      <path id="Shape-11" data-name="Shape" d="M1.409-.174A1,1,0,0,0,0,.738V13.26a1,1,0,0,0,1.409.913L15.384,7.912a1,1,0,0,0,0-1.825Z" transform="translate(102.001 220.202)" fill="#e2515c"/>
    </g>
    <g id="Group_176" data-name="Group 176" transform="translate(272.061 661.628)">
      <rect id="Rectangle-3" data-name="Rectangle" width="149.614" height="2" transform="translate(0 7.177)" fill="#e2515c"/>
    </g>
    <g id="Group_238" data-name="Group 238" transform="translate(143.249 191.284)">
      <g id="Process-3" data-name="Process" transform="translate(293.504 370.784)">
        <path id="Shape-12" data-name="Shape" d="M3,0H193.556a3,3,0,0,1,3,3V62.355a0,0,0,0,1,0,0H0a0,0,0,0,1,0,0V3A3,3,0,0,1,3,0Z" fill="#1A1714" stroke="#e2515c" stroke-linejoin="round" stroke-width="2"/>
      </g>
      <text id="New" transform="translate(392 409)" fill="#f2f2f2" font-size="20" font-family="OpenSans-Regular, Open Sans"><tspan x="-20.728" y="0">New</tspan></text>
    </g>
    <g id="Group_239" data-name="Group 239" transform="translate(143.249 268.296)">
      <g id="Process-4" data-name="Process" transform="translate(293.504 370.784)">
        <path id="Shape-13" data-name="Shape" d="M3,0H193.556a3,3,0,0,1,3,3V62.355a0,0,0,0,1,0,0H0a0,0,0,0,1,0,0V3A3,3,0,0,1,3,0Z" fill="#1A1714" stroke="#e2515c" stroke-linejoin="round" stroke-width="2"/>
      </g>
      <text id="Closest" transform="translate(392 409)" fill="#f2f2f2" font-size="20" font-family="OpenSans-Regular, Open Sans"><tspan x="-33.56" y="0">Closest</tspan></text>
    </g>
    <g id="Group_240" data-name="Group 240" transform="translate(143.249 342.296)">
      <g id="Process-5" data-name="Process" transform="translate(293.504 370.784)">
        <path id="Shape-14" data-name="Shape" d="M3,0H193.556a3,3,0,0,1,3,3V62.355a0,0,0,0,1,0,0H0a0,0,0,0,1,0,0V3A3,3,0,0,1,3,0Z" fill="#1A1714" stroke="#e2515c" stroke-linejoin="round" stroke-width="2"/>
      </g>
      <text id="Furthest" transform="translate(392 409)" fill="#f2f2f2" font-size="20" font-family="OpenSans-Regular, Open Sans"><tspan x="-38.96" y="0">Furthest</tspan></text>
    </g>
    <g id="Group_241" data-name="Group 241" transform="translate(143.249 417.308)">
      <g id="Process-6" data-name="Process" transform="translate(293.504 370.784)">
        <path id="Shape-15" data-name="Shape" d="M3,0H193.556a3,3,0,0,1,3,3V62.355a0,0,0,0,1,0,0H0a0,0,0,0,1,0,0V3A3,3,0,0,1,3,0Z" fill="#1A1714" stroke="#e2515c" stroke-linejoin="round" stroke-width="2"/>
      </g>
      <text id="Finished" transform="translate(392 409)" fill="#f2f2f2" font-size="20" font-family="OpenSans-Regular, Open Sans"><tspan x="-39.004" y="0">Finished</tspan></text>
    </g>
    <g id="_1-3" data-name="#1" transform="translate(632.31 811.27)">
      <g id="Group_176-2" data-name="Group 176" transform="translate(1 -0.177)">
        <rect id="Rectangle-4" data-name="Rectangle" width="81.783" height="2" transform="translate(0 7.177)" fill="#e2515c"/>
        <path id="Shape-16" data-name="Shape" d="M12.758.138A1,1,0,0,1,14.263,1V15.353a1,1,0,0,1-1.505.863L.495,9.04a1,1,0,0,1,0-1.726Z" transform="translate(84.223 16.354) rotate(180)" fill="#e2515c"/>
      </g>
    </g>
    <g id="Group_243" data-name="Group 243" transform="translate(431.118 417.308)">
      <g id="Process-7" data-name="Process" transform="translate(293.504 370.784)">
        <path id="Shape-17" data-name="Shape" d="M3,0H193.556a3,3,0,0,1,3,3V62.355a0,0,0,0,1,0,0H0a0,0,0,0,1,0,0V3A3,3,0,0,1,3,0Z" fill="#1A1714" stroke="#e2515c" stroke-linejoin="round" stroke-width="2"/>
      </g>
      <text id="View_Solved_EE" data-name="View Solved EE" transform="translate(392 409)" fill="#f2f2f2" font-size="20" font-family="OpenSans-Regular, Open Sans"><tspan x="-68.794" y="0">View Solved EE</tspan></text>
    </g>
    <g id="_9-2" data-name="#9" transform="translate(960.806 740.996)">
      <path id="Line-4" data-name="Line" d="M0,0H-52c-3.314,0-6,3.9-6,8.707v133.5c0,4.809,2.686,8.707,6,8.707H-.822" transform="translate(112 2.15)" fill="none" stroke="#e2515c" stroke-linecap="round" stroke-miterlimit="10" stroke-width="2"/>
      <path id="Shape-18" data-name="Shape" d="M1.409-.174A1,1,0,0,0,0,.738V13.26a1,1,0,0,0,1.409.913L15.384,7.912a1,1,0,0,0,0-1.825Z" transform="translate(102 71.936)" fill="#e2515c"/>
      <path id="Shape-19" data-name="Shape" d="M1.409-.174A1,1,0,0,0,0,.738V13.26a1,1,0,0,0,1.409.913L15.384,7.912a1,1,0,0,0,0-1.825Z" transform="translate(102 -4.85)" fill="#e2515c"/>
      <path id="Line-5" data-name="Line" d="M-58,66.3v83.038c0,5.927,2.686,10.733,6,10.733H-.822" transform="translate(112 67.127)" fill="none" stroke="#e2515c" stroke-linecap="round" stroke-miterlimit="10" stroke-width="2"/>
      <path id="Shape-20" data-name="Shape" d="M1.409-.174A1,1,0,0,0,0,.738V13.26a1,1,0,0,0,1.409.913L15.384,7.912a1,1,0,0,0,0-1.825Z" transform="translate(102.001 220.202)" fill="#e2515c"/>
      <path id="Shape-21" data-name="Shape" d="M1.409-.174A1,1,0,0,0,0,.738V13.26a1,1,0,0,0,1.409.913L15.384,7.912a1,1,0,0,0,0-1.825Z" transform="translate(102 146.07)" fill="#e2515c"/>
    </g>
    <g id="Group_244" data-name="Group 244" transform="translate(921.178 811.547)">
      <rect id="Rectangle-5" data-name="Rectangle" width="149.614" height="2" transform="translate(0 7.177)" fill="#e2515c"/>
    </g>
    <g id="Group_2" data-name="Group " transform="translate(429.663 388.263) rotate(90)">
      <path id="Shape-22" data-name="Shape" d="M1.409.089A1,1,0,0,0,0,1V13.522a1,1,0,0,0,1.409.913L15.384,8.174a1,1,0,0,0,0-1.825Z" transform="translate(0 15.975) rotate(-90)" fill="#e2515c"/>
    </g>
    <g id="_9-3" data-name="#9" transform="translate(311.688 242.457)">
      <path id="Line-6" data-name="Line" d="M0,0H-52c-3.314,0-6,3.9-6,8.707v133.5c0,4.809,2.686,8.707,6,8.707H-.822" transform="translate(112 2.15)" fill="none" stroke="#e2515c" stroke-linecap="round" stroke-miterlimit="10" stroke-width="2"/>
      <path id="Shape-23" data-name="Shape" d="M1.409-.174A1,1,0,0,0,0,.738V13.26a1,1,0,0,0,1.409.913L15.384,7.912a1,1,0,0,0,0-1.825Z" transform="translate(102 71.936)" fill="#e2515c"/>
      <path id="Shape-24" data-name="Shape" d="M1.409-.174A1,1,0,0,0,0,.738V13.26a1,1,0,0,0,1.409.913L15.384,7.912a1,1,0,0,0,0-1.825Z" transform="translate(102 -4.85)" fill="#e2515c"/>
      <path id="Line-7" data-name="Line" d="M-58,66.3v83.038c0,5.927,2.686,10.733,6,10.733H-.822" transform="translate(112 67.127)" fill="none" stroke="#e2515c" stroke-linecap="round" stroke-miterlimit="10" stroke-width="2"/>
      <path id="Shape-25" data-name="Shape" d="M1.409-.174A1,1,0,0,0,0,.738V13.26a1,1,0,0,0,1.409.913L15.384,7.912a1,1,0,0,0,0-1.825Z" transform="translate(102.001 220.202)" fill="#e2515c"/>
    </g>
    <g id="Group_246" data-name="Group 246" transform="translate(143.249 -157.336)">
      <g id="Process-8" data-name="Process" transform="translate(293.504 370.784)">
        <path id="Shape-26" data-name="Shape" d="M3,0H193.556a3,3,0,0,1,3,3V62.355a0,0,0,0,1,0,0H0a0,0,0,0,1,0,0V3A3,3,0,0,1,3,0Z" fill="#1A1714" stroke="#e2515c" stroke-linejoin="round" stroke-width="2"/>
      </g>
      <text id="View_Steps" data-name="View Steps" transform="translate(392 409)" fill="#f2f2f2" font-size="20" font-family="OpenSans-Regular, Open Sans"><tspan x="-49.795" y="0">View Steps</tspan></text>
    </g>
    <g id="Group_247" data-name="Group 247" transform="translate(143.249 -80.324)">
      <g id="Process-9" data-name="Process" transform="translate(293.504 370.784)">
        <path id="Shape-27" data-name="Shape" d="M3,0H193.556a3,3,0,0,1,3,3V62.355a0,0,0,0,1,0,0H0a0,0,0,0,1,0,0V3A3,3,0,0,1,3,0Z" fill="#1A1714" stroke="#e2515c" stroke-linejoin="round" stroke-width="2"/>
      </g>
      <text id="Current_Step" data-name="Current Step" transform="translate(392 409)" fill="#f2f2f2" font-size="20" font-family="OpenSans-Regular, Open Sans"><tspan x="-59.043" y="0">Current Step</tspan></text>
    </g>
    <g id="Group_248" data-name="Group 248" transform="translate(143.249 -6.324)">
      <g id="Process-10" data-name="Process" transform="translate(293.504 370.784)">
        <path id="Shape-28" data-name="Shape" d="M3,0H193.556a3,3,0,0,1,3,3V62.355a0,0,0,0,1,0,0H0a0,0,0,0,1,0,0V3A3,3,0,0,1,3,0Z" fill="#1A1714" stroke="#e2515c" stroke-linejoin="round" stroke-width="2"/>
      </g>
      <text id="Name" transform="translate(392 409)" fill="#f2f2f2" font-size="20" font-family="OpenSans-Regular, Open Sans"><tspan x="-28.013" y="0">Name</tspan></text>
    </g>
    <g id="Group_249" data-name="Group 249" transform="translate(143.249 68.688)">
      <g id="Process-11" data-name="Process" transform="translate(293.504 370.784)">
        <path id="Shape-29" data-name="Shape" d="M3,0H193.556a3,3,0,0,1,3,3V62.355a0,0,0,0,1,0,0H0a0,0,0,0,1,0,0V3A3,3,0,0,1,3,0Z" fill="#1A1714" stroke="#e2515c" stroke-linejoin="round" stroke-width="2"/>
      </g>
      <text id="Percentage_Complete" data-name="Percentage Complete" transform="translate(392 409)" fill="#f2f2f2" font-size="19" font-family="OpenSans-Regular, Open Sans"><tspan x="-94.865" y="0">Percentage Complete</tspan></text>
    </g>
    <g id="Group_3" data-name="Group " transform="translate(365.688 377.734) rotate(180)">
      <path id="Line-8" data-name="Line" d="M93.642,0H8.386C3.754,0,0,1.847,0,4.126V46.766" transform="translate(0 0)" fill="none" stroke="#e2515c" stroke-linecap="round" stroke-miterlimit="10" stroke-width="2"/>
    </g>
    <g id="Group_4" data-name="Group " transform="translate(424.483 321.638) rotate(90)">
      <path id="Line-9" data-name="Line" d="M11.207,53.272H1c-.554,0-1-2.1-1-4.7V0" transform="translate(0 5.523)" fill="none" stroke="#e2515c" stroke-linecap="round" stroke-miterlimit="10" stroke-width="2"/>
    </g>
    <g id="Group_250" data-name="Group 250" transform="translate(792.368 340.697)">
      <g id="Process-12" data-name="Process" transform="translate(293.504 370.784)">
        <path id="Shape-30" data-name="Shape" d="M3,0H193.556a3,3,0,0,1,3,3V62.355a0,0,0,0,1,0,0H0a0,0,0,0,1,0,0V3A3,3,0,0,1,3,0Z" fill="#1A1714" stroke="#e2515c" stroke-linejoin="round" stroke-width="2"/>
      </g>
      <text id="View_Steps-2" data-name="View Steps" transform="translate(392 409)" fill="#f2f2f2" font-size="20" font-family="OpenSans-Regular, Open Sans"><tspan x="-49.795" y="0">View Steps</tspan></text>
    </g>
    <g id="Group_251" data-name="Group 251" transform="translate(792.368 417.708)">
      <g id="Process-13" data-name="Process" transform="translate(293.504 370.784)">
        <path id="Shape-31" data-name="Shape" d="M3,0H193.556a3,3,0,0,1,3,3V62.355a0,0,0,0,1,0,0H0a0,0,0,0,1,0,0V3A3,3,0,0,1,3,0Z" fill="#1A1714" stroke="#e2515c" stroke-linejoin="round" stroke-width="2"/>
      </g>
      <text id="View_Solvers" data-name="View Solvers" transform="translate(392 409)" fill="#f2f2f2" font-size="20" font-family="OpenSans-Regular, Open Sans"><tspan x="-57.798" y="0">View Solvers</tspan></text>
    </g>
    <g id="Group_253" data-name="Group 253" transform="translate(792.368 566.721)">
      <g id="Process-14" data-name="Process" transform="translate(293.504 370.784)">
        <path id="Shape-32" data-name="Shape" d="M3,0H193.556a3,3,0,0,1,3,3V62.355a0,0,0,0,1,0,0H0a0,0,0,0,1,0,0V3A3,3,0,0,1,3,0Z" fill="#1A1714" stroke="#e2515c" stroke-linejoin="round" stroke-width="2"/>
      </g>
      <text id="View_Vinyl" data-name="View Vinyl" transform="translate(392 409)" fill="#f2f2f2" font-size="19" font-family="OpenSans-Regular, Open Sans"><tspan x="-44.132" y="0">View Vinyl</tspan></text>
    </g>
    <g id="_1-4" data-name="#1" transform="translate(1281.428 961.384)">
      <g id="Group_176-3" data-name="Group 176" transform="translate(1 -0.177)">
        <rect id="Rectangle-6" data-name="Rectangle" width="81.783" height="2" transform="translate(0 7.177)" fill="#e2515c"/>
        <path id="Shape-33" data-name="Shape" d="M12.758.138A1,1,0,0,1,14.263,1V15.353a1,1,0,0,1-1.505.863L.495,9.04a1,1,0,0,1,0-1.726Z" transform="translate(84.223 16.354) rotate(180)" fill="#e2515c"/>
      </g>
    </g>
    <g id="Group_237" data-name="Group 237" transform="translate(1282.801 755.936)">
      <g id="Terminal-2" data-name="Terminal" transform="translate(86.071 180.557)">
        <rect id="Shape-34" data-name="Shape" width="175.422" height="65.783" rx="32.892" fill="#1A1714" stroke="#e2515c" stroke-linejoin="round" stroke-width="2"/>
      </g>
      <text id="Vinyl" transform="translate(174 221)" fill="#f2f2f2" font-size="21" font-family="OpenSans-Regular, Open Sans"><tspan x="-23.297" y="0">Vinyl</tspan></text>
    </g>
    <g id="Group_231" data-name="Group 231" transform="translate(1010.368 494.72)">
      <g id="Predefined_Process" data-name="Predefined Process" transform="translate(75.504 370.784)">
        <rect id="Shape-35" data-name="Shape" width="196.556" height="62.355" fill="#1A1714" stroke="#e2515c" stroke-linejoin="round" stroke-width="2"/>
        <rect id="Shape-36" data-name="Shape" width="20.785" height="62.355" fill="#1A1714" stroke="#e2515c" stroke-linejoin="round" stroke-width="2"/>
        <rect id="Shape-37" data-name="Shape" width="20.785" height="62.355" transform="translate(175.771)" fill="#1A1714" stroke="#e2515c" stroke-linejoin="round" stroke-width="2"/>
      </g>
      <text id="Access_Content" data-name="Access Content" transform="translate(174 409)" fill="#f2f2f2" font-size="20" font-family="OpenSans-Regular, Open Sans"><tspan x="-70.894" y="0">Access Content</tspan></text>
    </g>
    <g id="Group_5" data-name="Group " transform="translate(735.019 244.626) rotate(180)">
      <path id="Line-10" data-name="Line" d="M101.709,0H9.108A8.837,8.837,0,0,0,0,8.539V96.771" transform="translate(0 0)" fill="none" stroke="#e2515c" stroke-linecap="round" stroke-miterlimit="10" stroke-width="2"/>
    </g>
    <g id="Group_6" data-name="Group " transform="translate(932.568 114.798) rotate(90)">
      <path id="Line-11" data-name="Line" d="M103.624,192.027H9.28c-5.125,0-9.28-7.586-9.28-16.944V0" transform="translate(0 5.523)" fill="none" stroke="#e2515c" stroke-linecap="round" stroke-miterlimit="10" stroke-width="2"/>
      <path id="Shape-38" data-name="Shape" d="M1.409.089A1,1,0,0,0,0,1V13.522a1,1,0,0,0,1.409.913L15.384,8.174a1,1,0,0,0,0-1.825Z" transform="translate(-7.262 15.975) rotate(-90)" fill="#e2515c"/>
    </g>
    <g id="Group_254" data-name="Group 254" transform="translate(646.249 -286.284)">
      <g id="Process-15" data-name="Process" transform="translate(293.504 370.784)">
        <path id="Shape-39" data-name="Shape" d="M3,0H193.556a3,3,0,0,1,3,3V62.355a0,0,0,0,1,0,0H0a0,0,0,0,1,0,0V3A3,3,0,0,1,3,0Z" fill="#1A1714" stroke="#e2515c" stroke-linejoin="round" stroke-width="2"/>
      </g>
      <text id="Steps_Completed_By_Other_Users" data-name="Steps Completed
By Other Users" transform="translate(392 398.962)" fill="#f2f2f2" font-size="18" font-family="OpenSans-Regular, Open Sans"><tspan x="-71.38" y="0">Steps Completed</tspan><tspan x="-63.338" y="20">By Other Users</tspan></text>
    </g>
    <g id="_1-5" data-name="#1" transform="translate(632.31 313.638)">
      <g id="Group_176-4" data-name="Group 176" transform="translate(1 -0.177)">
        <rect id="Rectangle-7" data-name="Rectangle" width="144.602" height="2" transform="translate(0 7.177)" fill="#e2515c"/>
        <path id="Shape-40" data-name="Shape" d="M12.758.138A1,1,0,0,1,14.263,1V15.353a1,1,0,0,1-1.505.863L.495,9.04a1,1,0,0,1,0-1.726Z" transform="translate(144.602 16.354) rotate(180)" fill="#e2515c"/>
      </g>
    </g>
    <g id="Group_163" data-name="Group 163" transform="translate(679.079 -233.373)">
      <g id="Decision" transform="translate(105.921 479.373)">
        <rect id="Shape-41" data-name="Shape" width="106.774" height="106.774" transform="translate(75.5 0) rotate(45)" fill="#1A1714" stroke="#e2515c" stroke-linejoin="round" stroke-width="2"/>
      </g>
      <text id="Answer_Step" data-name="Answer
Step" transform="translate(181 549)" fill="#f2f2f2" font-size="20" font-family="OpenSans-Regular, Open Sans"><tspan x="-34.707" y="0">Answer</tspan><tspan x="-20.757" y="22">Step</tspan></text>
    </g>
    <g id="Group_170" data-name="Group 170" transform="translate(751.742 -340.738)">
      <g id="Output" transform="translate(286.289 521.982)">
        <path id="Shape-42" data-name="Shape" d="M24.086,0H216.772L192.686,62.355H0Z" fill="#1A1714" stroke="#e2515c" stroke-linejoin="round" stroke-width="2"/>
      </g>
      <text id="Reveal_Next_Step" data-name="Reveal Next Step" transform="translate(392 561.37)" fill="#f2f2f2" font-size="20" font-family="OpenSans-Regular, Open Sans"><tspan x="-77.974" y="0">Reveal Next Step</tspan></text>
    </g>
    <g id="Group_255" data-name="Group 255" transform="translate(751.742 -121.738)">
      <g id="Output-2" data-name="Output" transform="translate(286.289 521.982)">
        <path id="Shape-43" data-name="Shape" d="M24.086,0H216.772L192.686,62.355H0Z" fill="#1A1714" stroke="#e2515c" stroke-linejoin="round" stroke-width="2"/>
      </g>
      <text id="Wrong" transform="translate(392 561.37)" fill="#f2f2f2" font-size="20" font-family="OpenSans-Regular, Open Sans"><tspan x="-30.698" y="0">Wrong</tspan></text>
    </g>
    <g id="_1-6" data-name="#1" transform="translate(1242.31 205.448)">
      <g id="Group_176-5" data-name="Group 176" transform="translate(1 -0.177)">
        <rect id="Rectangle-8" data-name="Rectangle" width="144.602" height="2" transform="translate(0 7.177)" fill="#e2515c"/>
        <path id="Shape-44" data-name="Shape" d="M12.758.138A1,1,0,0,1,14.263,1V15.353a1,1,0,0,1-1.505.863L.495,9.04a1,1,0,0,1,0-1.726Z" transform="translate(144.602 16.354) rotate(180)" fill="#e2515c"/>
      </g>
    </g>
    <g id="Group_256" data-name="Group 256" transform="translate(1101.497 -188.514)">
      <g id="Process-16" data-name="Process" transform="translate(293.504 370.784)">
        <path id="Shape-45" data-name="Shape" d="M3,0H193.556a3,3,0,0,1,3,3V62.355a0,0,0,0,1,0,0H0a0,0,0,0,1,0,0V3A3,3,0,0,1,3,0Z" fill="#1A1714" stroke="#e2515c" stroke-linejoin="round" stroke-width="2"/>
      </g>
      <text id="Try_to_Solve_Steps" data-name="Try to Solve Steps" transform="translate(392 408.462)" fill="#f2f2f2" font-size="20" font-family="OpenSans-Regular, Open Sans"><tspan x="-81.724" y="0">Try to Solve Steps</tspan></text>
    </g>
    <g id="_1-7" data-name="#1" transform="translate(1242.31 423.599)">
      <g id="Group_176-6" data-name="Group 176" transform="translate(1 -0.177)">
        <rect id="Rectangle-9" data-name="Rectangle" width="108.1" height="2" transform="translate(0 7.177)" fill="#e2515c"/>
        <path id="Shape-46" data-name="Shape" d="M12.758.138A1,1,0,0,1,14.263,1V15.353a1,1,0,0,1-1.505.863L.495,9.04a1,1,0,0,1,0-1.726Z" transform="translate(108.1 16.354) rotate(180)" fill="#e2515c"/>
      </g>
    </g>
    <g id="Group_257" data-name="Group 257" transform="translate(1251.079 -123.373)">
      <g id="Decision-2" data-name="Decision" transform="translate(105.921 479.373)">
        <rect id="Shape-47" data-name="Shape" width="106.774" height="106.774" transform="translate(75.5 0) rotate(45)" fill="#1A1714" stroke="#e2515c" stroke-linejoin="round" stroke-width="2"/>
      </g>
      <text id="Try_Again" data-name="Try
Again" transform="translate(181 549)" fill="#f2f2f2" font-size="20" font-family="OpenSans-Regular, Open Sans"><tspan x="-14.155" y="0">Try</tspan><tspan x="-26.035" y="22">Again</tspan></text>
    </g>
    <g id="Group_7" data-name="Group " transform="translate(1001.501 692.068) rotate(-90)">
      <path id="Line-12" data-name="Line" d="M19.067,0h-78.36C-63.549,0-67,7.311-67,16.33V185.074" transform="translate(166 431)" fill="none" stroke="#e2515c" stroke-linecap="round" stroke-miterlimit="10" stroke-width="2"/>
      <path id="Shape-48" data-name="Shape" d="M12.758.138A1,1,0,0,1,14.263,1V15.353a1,1,0,0,1-1.505.863L.495,9.04a1,1,0,0,1,0-1.726Z" transform="translate(90.822 620.337) rotate(-90)" fill="#e2515c"/>
    </g>
    <g id="Group_258" data-name="Group 258" transform="translate(1336.497 192.486)">
      <g id="Process-17" data-name="Process" transform="translate(293.504 370.784)">
        <path id="Shape-49" data-name="Shape" d="M3,0H193.556a3,3,0,0,1,3,3V62.355a0,0,0,0,1,0,0H0a0,0,0,0,1,0,0V3A3,3,0,0,1,3,0Z" fill="#1A1714" stroke="#e2515c" stroke-linejoin="round" stroke-width="2"/>
      </g>
      <text id="Current_Step-2" data-name="Current Step" transform="translate(392 408.462)" fill="#f2f2f2" font-size="20" font-family="OpenSans-Regular, Open Sans"><tspan x="-59.043" y="0">Current Step</tspan></text>
    </g>
    <g id="Group_8" data-name="Group " transform="translate(1693.557 862.422) rotate(-180)">
      <path id="Line-13" data-name="Line" d="M19.556,0h-78.8A7.9,7.9,0,0,0-67,8.033v83" transform="translate(166 431)" fill="none" stroke="#e2515c" stroke-linecap="round" stroke-miterlimit="10" stroke-width="2"/>
    </g>
    <g id="Group_9" data-name="Group " transform="translate(2025.557 222.639) rotate(90)">
      <path id="Line-14" data-name="Line" d="M11.605,0H-59.961C-63.848,0-67,25.7-67,57.4v593.14" transform="translate(166 431)" fill="none" stroke="#e2515c" stroke-linecap="round" stroke-miterlimit="10" stroke-width="2"/>
      <path id="Shape-50" data-name="Shape" d="M12.758.138A1,1,0,0,1,14.263,1V15.353a1,1,0,0,1-1.505.863L.495,9.04a1,1,0,0,1,0-1.726Z" transform="translate(90.822 1085.804) rotate(-90)" fill="#e2515c"/>
    </g>
  </g>
</svg>
