<svg xmlns="http://www.w3.org/2000/svg" xmlns:xlink="http://www.w3.org/1999/xlink" width="1920" height="1080" viewBox="0 0 1920 1080">
  <defs>
    <clipPath id="clip-Chapter_3_-_Reccommended">
      <rect width="1920" height="1080"/>
    </clipPath>
  </defs>
  <g id="Chapter_3_-_Reccommended" data-name="Chapter 3 - Reccommended" clip-path="url(#clip-Chapter_3_-_Reccommended)">
    <rect width="1920" height="1080" fill="#fff"/>
    <rect id="Rectangle_1" data-name="Rectangle 1" width="1920" height="1080" fill="#1A1714"/>
    <g id="Group_165" data-name="Group 165">
      <g id="Terminal" transform="translate(86.071 180.557)">
        <rect id="Shape" width="175.422" height="65.783" rx="32.892" fill="#1A1714" stroke="#e2515c" stroke-linejoin="round" stroke-width="2"/>
      </g>
      <text id="Reccommended" transform="translate(174 221)" fill="#f2f2f2" font-size="21" font-family="OpenSans-Regular, Open Sans"><tspan x="-79.35" y="0">Reccommended</tspan></text>
    </g>
    <g id="_1" data-name="#1" transform="translate(181.782 245.34) rotate(90)">
      <rect id="Rectangle" width="156.075" height="2" transform="translate(1 7)" fill="#e2515c"/>
      <path id="Shape-2" data-name="Shape" d="M1.4.349A1,1,0,0,0,0,1.264V12.736a1,1,0,0,0,1.4.915L14.382,7.915a1,1,0,0,0,0-1.829Z" transform="translate(143.075 1)" fill="#e2515c"/>
    </g>
    <g id="Group_191" data-name="Group 191" transform="translate(-218 40.772)">
      <g id="Process" transform="translate(293.504 370.784)">
        <path id="Shape-3" data-name="Shape" d="M3,0H193.556a3,3,0,0,1,3,3V62.355a0,0,0,0,1,0,0H0a0,0,0,0,1,0,0V3A3,3,0,0,1,3,0Z" fill="#1A1714" stroke="#e2515c" stroke-linejoin="round" stroke-width="2"/>
      </g>
      <text id="View_Interests" data-name="View Interests" transform="translate(392 409)" fill="#f2f2f2" font-size="20" font-family="OpenSans-Regular, Open Sans"><tspan x="-64.897" y="0">View Interests</tspan></text>
    </g>
    <g id="_9" data-name="#9" transform="translate(271.06 398.18)">
      <rect id="Rectangle-2" data-name="Rectangle" width="53" height="2" transform="translate(1 43.157)" fill="#e2515c"/>
      <path id="Line" d="M0,0H-52c-3.314,0-6,1.92-6,4.287V70.027c0,2.368,2.686,4.287,6,4.287H-.823" transform="translate(112 7)" fill="none" stroke="#e2515c" stroke-linecap="round" stroke-miterlimit="10" stroke-width="2"/>
      <path id="Shape-4" data-name="Shape" d="M1.409-.174A1,1,0,0,0,0,.738V13.26a1,1,0,0,0,1.409.913L15.384,7.912a1,1,0,0,0,0-1.825Z" transform="translate(102 74.314)" fill="#e2515c"/>
      <path id="Shape-5" data-name="Shape" d="M1.409-.174A1,1,0,0,0,0,.738V13.26a1,1,0,0,0,1.409.913L15.384,7.912a1,1,0,0,0,0-1.825Z" transform="translate(102)" fill="#e2515c"/>
      <path id="Shape-6" data-name="Shape" d="M1.409-.174A1,1,0,0,0,0,.738V13.26a1,1,0,0,0,1.409.913L15.384,7.912a1,1,0,0,0,0-1.825Z" transform="translate(427 37.158)" fill="#e2515c"/>
    </g>
    <g id="_9-2" data-name="#9" transform="translate(272.06 324.06)">
      <rect id="Rectangle-3" data-name="Rectangle" width="53" height="2" transform="translate(0 117.278)" fill="#e2515c"/>
      <path id="Line-2" data-name="Line" d="M0,0H-52c-3.314,0-6,5.735-6,12.809v196.41c0,7.074,2.686,12.809,6,12.809H-.823" transform="translate(111 7.263)" fill="none" stroke="#e2515c" stroke-linecap="round" stroke-miterlimit="10" stroke-width="2"/>
      <path id="Shape-7" data-name="Shape" d="M1.409-.174A1,1,0,0,0,0,.738V13.26a1,1,0,0,0,1.409.913L15.384,7.912a1,1,0,0,0,0-1.825Z" transform="translate(101 222.291)" fill="#e2515c"/>
      <path id="Shape-8" data-name="Shape" d="M1.409-.174A1,1,0,0,0,0,.738V13.26a1,1,0,0,0,1.409.913L15.384,7.912a1,1,0,0,0,0-1.825Z" transform="translate(101 0.263)" fill="#e2515c"/>
    </g>
    <g id="_9-3" data-name="#9" transform="translate(272.06 249.787)">
      <rect id="Rectangle-4" data-name="Rectangle" width="53" height="2" transform="translate(0 191.552)" fill="#e2515c"/>
      <path id="Line-3" data-name="Line" d="M0,0H-52c-3.314,0-6,9.572-6,21.379V349.2c0,11.807,2.686,21.379,6,21.379H-.823" transform="translate(111 7.263)" fill="none" stroke="#e2515c" stroke-linecap="round" stroke-miterlimit="10" stroke-width="2"/>
      <path id="Shape-9" data-name="Shape" d="M1.409-.174A1,1,0,0,0,0,.738V13.26a1,1,0,0,0,1.409.913L15.384,7.912a1,1,0,0,0,0-1.825Z" transform="translate(101 370.838)" fill="#e2515c"/>
      <path id="Shape-10" data-name="Shape" d="M1.409-.174A1,1,0,0,0,0,.738V13.26a1,1,0,0,0,1.409.913L15.384,7.912a1,1,0,0,0,0-1.825Z" transform="translate(101 0.263)" fill="#e2515c"/>
    </g>
    <g id="Group_212" data-name="Group 212" transform="translate(102 3.431)">
      <g id="Process-2" data-name="Process" transform="translate(293.504 370.784)">
        <path id="Shape-11" data-name="Shape" d="M3,0H193.556a3,3,0,0,1,3,3V62.355a0,0,0,0,1,0,0H0a0,0,0,0,1,0,0V3A3,3,0,0,1,3,0Z" fill="#1A1714" stroke="#e2515c" stroke-linejoin="round" stroke-width="2"/>
      </g>
      <text id="Choose_Genres" data-name="Choose Genres" transform="translate(392 409)" fill="#f2f2f2" font-size="20" font-family="OpenSans-Regular, Open Sans"><tspan x="-70.796" y="0">Choose Genres</tspan></text>
    </g>
    <g id="Group_213" data-name="Group 213" transform="translate(102 77.431)">
      <g id="Process-3" data-name="Process" transform="translate(293.504 370.784)">
        <path id="Shape-12" data-name="Shape" d="M3,0H193.556a3,3,0,0,1,3,3V62.355a0,0,0,0,1,0,0H0a0,0,0,0,1,0,0V3A3,3,0,0,1,3,0Z" fill="#1A1714" stroke="#e2515c" stroke-linejoin="round" stroke-width="2"/>
      </g>
      <text id="Choose_Decades" data-name="Choose Decades" transform="translate(392 409)" fill="#f2f2f2" font-size="20" font-family="OpenSans-Regular, Open Sans"><tspan x="-77.236" y="0">Choose Decades</tspan></text>
    </g>
    <g id="Group_214" data-name="Group 214" transform="translate(102 151.431)">
      <g id="Process-4" data-name="Process" transform="translate(293.504 370.784)">
        <path id="Shape-13" data-name="Shape" d="M3,0H193.556a3,3,0,0,1,3,3V62.355a0,0,0,0,1,0,0H0a0,0,0,0,1,0,0V3A3,3,0,0,1,3,0Z" fill="#1A1714" stroke="#e2515c" stroke-linejoin="round" stroke-width="2"/>
      </g>
      <text id="Choose_Emotion" data-name="Choose Emotion" transform="translate(392 409)" fill="#f2f2f2" font-size="20" font-family="OpenSans-Regular, Open Sans"><tspan x="-76.646" y="0">Choose Emotion</tspan></text>
    </g>
    <g id="Group_215" data-name="Group 215" transform="translate(102 225.431)">
      <g id="Process-5" data-name="Process" transform="translate(293.504 370.784)">
        <path id="Shape-14" data-name="Shape" d="M3,0H193.556a3,3,0,0,1,3,3V62.355a0,0,0,0,1,0,0H0a0,0,0,0,1,0,0V3A3,3,0,0,1,3,0Z" fill="#1A1714" stroke="#e2515c" stroke-linejoin="round" stroke-width="2"/>
      </g>
      <text id="Choose_Purpose" data-name="Choose Purpose" transform="translate(392 409)" fill="#f2f2f2" font-size="20" font-family="OpenSans-Regular, Open Sans"><tspan x="-76.294" y="0">Choose Purpose</tspan></text>
    </g>
    <g id="Group_216" data-name="Group 216" transform="translate(102 -144.569)">
      <g id="Process-6" data-name="Process" transform="translate(293.504 370.784)">
        <path id="Shape-15" data-name="Shape" d="M3,0H193.556a3,3,0,0,1,3,3V62.355a0,0,0,0,1,0,0H0a0,0,0,0,1,0,0V3A3,3,0,0,1,3,0Z" fill="#1A1714" stroke="#e2515c" stroke-linejoin="round" stroke-width="2"/>
      </g>
      <text id="Choose_Artists" data-name="Choose Artists" transform="translate(392 409)" fill="#f2f2f2" font-size="20" font-family="OpenSans-Regular, Open Sans"><tspan x="-67.046" y="0">Choose Artists</tspan></text>
    </g>
    <g id="Group_217" data-name="Group 217" transform="translate(102 -70.569)">
      <g id="Process-7" data-name="Process" transform="translate(293.504 370.784)">
        <path id="Shape-16" data-name="Shape" d="M3,0H193.556a3,3,0,0,1,3,3V62.355a0,0,0,0,1,0,0H0a0,0,0,0,1,0,0V3A3,3,0,0,1,3,0Z" fill="#1A1714" stroke="#e2515c" stroke-linejoin="round" stroke-width="2"/>
      </g>
      <text id="Choose_Albums" data-name="Choose Albums" transform="translate(392 409)" fill="#f2f2f2" font-size="20" font-family="OpenSans-Regular, Open Sans"><tspan x="-72.7" y="0">Choose Albums</tspan></text>
    </g>
    <g id="_9-4" data-name="#9" transform="translate(586.085 397.918)">
      <rect id="Rectangle-5" data-name="Rectangle" width="53" height="2" transform="translate(63.975 43.419)" fill="#e2515c"/>
      <path id="Line-4" data-name="Line" d="M-58,0H-6c3.314,0,6,1.92,6,4.287V70.027c0,2.368-2.686,4.287-6,4.287H-57.177" transform="translate(63.975 7.263)" fill="none" stroke="#e2515c" stroke-linecap="round" stroke-miterlimit="10" stroke-width="2"/>
    </g>
    <g id="_9-5" data-name="#9" transform="translate(586.085 324.06)">
      <rect id="Rectangle-6" data-name="Rectangle" width="53" height="2" transform="translate(63.975 117.278)" fill="#e2515c"/>
      <path id="Line-5" data-name="Line" d="M-58,0H-6c3.314,0,6,5.735,6,12.809v196.41c0,7.074-2.686,12.809-6,12.809H-57.177" transform="translate(63.975 7.263)" fill="none" stroke="#e2515c" stroke-linecap="round" stroke-miterlimit="10" stroke-width="2"/>
    </g>
    <g id="_9-6" data-name="#9" transform="translate(586.085 249.787)">
      <rect id="Rectangle-7" data-name="Rectangle" width="53" height="2" transform="translate(63.975 191.552)" fill="#e2515c"/>
      <path id="Line-6" data-name="Line" d="M-58,0H-6c3.314,0,6,9.572,6,21.379V349.2C0,361-2.686,370.575-6,370.575H-57.177" transform="translate(63.975 7.263)" fill="none" stroke="#e2515c" stroke-linecap="round" stroke-miterlimit="10" stroke-width="2"/>
    </g>
    <g id="Group_218" data-name="Group 218" transform="translate(427.747 -110.822)">
      <g id="Output" transform="translate(286.289 521.982)">
        <path id="Shape-17" data-name="Shape" d="M24.086,0H216.772L192.686,62.355H0Z" fill="#1A1714" stroke="#e2515c" stroke-linejoin="round" stroke-width="2"/>
      </g>
      <text id="Submit_Interests" data-name="Submit Interests" transform="translate(392 561.37)" fill="#f2f2f2" font-size="20" font-family="OpenSans-Regular, Open Sans"><tspan x="-76.343" y="0">Submit Interests</tspan></text>
    </g>
    <g id="_1-2" data-name="#1" transform="translate(916.871 437.307)">
      <rect id="Rectangle-8" data-name="Rectangle" width="109.816" height="2" transform="translate(1 7)" fill="#e2515c"/>
      <path id="Shape-18" data-name="Shape" d="M1.4.349A1,1,0,0,0,0,1.264V12.736a1,1,0,0,0,1.4.915L14.382,7.915a1,1,0,0,0,0-1.829Z" transform="translate(96.816 1)" fill="#e2515c"/>
    </g>
    <g id="Group_219" data-name="Group 219" transform="translate(746.135 40.772)">
      <g id="Process-8" data-name="Process" transform="translate(293.504 370.784)">
        <path id="Shape-19" data-name="Shape" d="M3,0H193.556a3,3,0,0,1,3,3V62.355a0,0,0,0,1,0,0H0a0,0,0,0,1,0,0V3A3,3,0,0,1,3,0Z" fill="#1A1714" stroke="#e2515c" stroke-linejoin="round" stroke-width="2"/>
      </g>
      <text id="Reccommeded_Vinyl" data-name="Reccommeded Vinyl" transform="translate(392 409)" fill="#f2f2f2" font-size="20" font-family="OpenSans-Regular, Open Sans"><tspan x="-94.219" y="0">Reccommeded Vinyl</tspan></text>
    </g>
    <g id="_9-7" data-name="#9" transform="translate(1398.74 472.515) rotate(90)">
      <rect id="Rectangle-9" data-name="Rectangle" width="53" height="2" transform="translate(1 259.827)" fill="#e2515c"/>
      <path id="Line-7" data-name="Line" d="M-.49,0H-52.051C-55.336,0-58,13.112-58,29.287V478.361c0,16.175,2.664,29.287,5.949,29.287H-1.305" transform="translate(112 7)" fill="none" stroke="#e2515c" stroke-linecap="round" stroke-miterlimit="10" stroke-width="2"/>
      <path id="Shape-20" data-name="Shape" d="M1.409-.174A1,1,0,0,0,0,.738V13.26a1,1,0,0,0,1.409.913L15.384,7.912a1,1,0,0,0,0-1.825Z" transform="translate(101.51 507.648)" fill="#e2515c"/>
      <path id="Shape-21" data-name="Shape" d="M1.409-.174A1,1,0,0,0,0,.738V13.26a1,1,0,0,0,1.409.913L15.384,7.912a1,1,0,0,0,0-1.825Z" transform="translate(101.51)" fill="#e2515c"/>
    </g>
    <g id="_1-3" data-name="#1" transform="translate(1145.917 521.215) rotate(90)">
      <rect id="Rectangle-10" data-name="Rectangle" width="66.312" height="2" transform="translate(1 7)" fill="#e2515c"/>
      <path id="Shape-22" data-name="Shape" d="M1.4.349A1,1,0,0,0,0,1.264V12.736a1,1,0,0,0,1.4.915L14.382,7.915a1,1,0,0,0,0-1.829Z" transform="translate(53.312 1)" fill="#e2515c"/>
    </g>
    <g id="Group_220" data-name="Group 220" transform="translate(492.367 225.216)">
      <g id="Process-9" data-name="Process" transform="translate(293.504 370.784)">
        <path id="Shape-23" data-name="Shape" d="M3,0H193.556a3,3,0,0,1,3,3V62.355a0,0,0,0,1,0,0H0a0,0,0,0,1,0,0V3A3,3,0,0,1,3,0Z" fill="#1A1714" stroke="#e2515c" stroke-linejoin="round" stroke-width="2"/>
      </g>
      <text id="Listen_Now" data-name="Listen Now" transform="translate(392 409)" fill="#f2f2f2" font-size="20" font-family="OpenSans-Regular, Open Sans"><tspan x="-51.523" y="0">Listen Now</tspan></text>
    </g>
    <g id="Group_221" data-name="Group 221" transform="translate(999.903 225.216)">
      <g id="Process-10" data-name="Process" transform="translate(293.504 370.784)">
        <path id="Shape-24" data-name="Shape" d="M3,0H193.556a3,3,0,0,1,3,3V62.355a0,0,0,0,1,0,0H0a0,0,0,0,1,0,0V3A3,3,0,0,1,3,0Z" fill="#1A1714" stroke="#e2515c" stroke-linejoin="round" stroke-width="2"/>
      </g>
      <text id="Join_Community" data-name="Join Community" transform="translate(392 409)" fill="#f2f2f2" font-size="20" font-family="OpenSans-Regular, Open Sans"><tspan x="-74.302" y="0">Join Community</tspan></text>
    </g>
    <g id="Group_222" data-name="Group 222" transform="translate(746.135 225.216)">
      <g id="Process-11" data-name="Process" transform="translate(293.504 370.784)">
        <path id="Shape-25" data-name="Shape" d="M3,0H193.556a3,3,0,0,1,3,3V62.355a0,0,0,0,1,0,0H0a0,0,0,0,1,0,0V3A3,3,0,0,1,3,0Z" fill="#1A1714" stroke="#e2515c" stroke-linejoin="round" stroke-width="2"/>
      </g>
      <text id="Follow_Artists" data-name="Follow Artists" transform="translate(392 409)" fill="#f2f2f2" font-size="20" font-family="OpenSans-Regular, Open Sans"><tspan x="-62.017" y="0">Follow Artists</tspan></text>
    </g>
    <g id="_1-4" data-name="#1" transform="translate(892.149 657.355) rotate(90)">
      <rect id="Rectangle-11" data-name="Rectangle" width="66.312" height="2" transform="translate(1 7)" fill="#e2515c"/>
      <path id="Shape-26" data-name="Shape" d="M1.4.349A1,1,0,0,0,0,1.264V12.736a1,1,0,0,0,1.4.915L14.382,7.915a1,1,0,0,0,0-1.829Z" transform="translate(53.312 1)" fill="#e2515c"/>
    </g>
    <g id="_1-5" data-name="#1" transform="translate(1145.917 657.355) rotate(90)">
      <rect id="Rectangle-12" data-name="Rectangle" width="66.312" height="2" transform="translate(1 7)" fill="#e2515c"/>
      <path id="Shape-27" data-name="Shape" d="M1.4.349A1,1,0,0,0,0,1.264V12.736a1,1,0,0,0,1.4.915L14.382,7.915a1,1,0,0,0,0-1.829Z" transform="translate(53.312 1)" fill="#e2515c"/>
    </g>
    <g id="_1-6" data-name="#1" transform="translate(1399.266 657.355) rotate(90)">
      <rect id="Rectangle-13" data-name="Rectangle" width="66.312" height="2" transform="translate(1 7)" fill="#e2515c"/>
      <path id="Shape-28" data-name="Shape" d="M1.4.349A1,1,0,0,0,0,1.264V12.736a1,1,0,0,0,1.4.915L14.382,7.915a1,1,0,0,0,0-1.829Z" transform="translate(53.312 1)" fill="#e2515c"/>
    </g>
    <g id="Group_223" data-name="Group 223" transform="translate(710.366 551.088)">
      <g id="Terminal-2" data-name="Terminal" transform="translate(86.071 180.557)">
        <rect id="Shape-29" data-name="Shape" width="175.422" height="65.783" rx="32.892" fill="#1A1714" stroke="#e2515c" stroke-linejoin="round" stroke-width="2"/>
      </g>
      <text id="Spotify" transform="translate(174 221)" fill="#f2f2f2" font-size="20" font-family="OpenSans-Regular, Open Sans"><tspan x="-32.144" y="0">Spotify</tspan></text>
    </g>
    <g id="Group_224" data-name="Group 224" transform="translate(964.872 551.088)">
      <g id="Terminal-3" data-name="Terminal" transform="translate(86.071 180.557)">
        <rect id="Shape-30" data-name="Shape" width="175.422" height="65.783" rx="32.892" fill="#1A1714" stroke="#e2515c" stroke-linejoin="round" stroke-width="2"/>
      </g>
      <text id="IG_Twitter" data-name="IG &amp; Twitter" transform="translate(174 221)" fill="#f2f2f2" font-size="20" font-family="OpenSans-Regular, Open Sans"><tspan x="-54.956" y="0">IG &amp; Twitter</tspan></text>
    </g>
    <g id="Group_225" data-name="Group 225" transform="translate(1218.378 551.088)">
      <g id="Terminal-4" data-name="Terminal" transform="translate(86.071 180.557)">
        <rect id="Shape-31" data-name="Shape" width="175.422" height="65.783" rx="32.892" fill="#1A1714" stroke="#e2515c" stroke-linejoin="round" stroke-width="2"/>
      </g>
      <text id="Discord_Reddit" data-name="Discord &amp; Reddit" transform="translate(174 221)" fill="#f2f2f2" font-size="20" font-family="OpenSans-Regular, Open Sans"><tspan x="-78.003" y="0">Discord &amp; Reddit</tspan></text>
    </g>
  </g>
</svg>
