<svg xmlns="http://www.w3.org/2000/svg" xmlns:xlink="http://www.w3.org/1999/xlink" width="1920" height="1080" viewBox="0 0 1920 1080">
  <defs>
    <clipPath id="clip-Chapter_4_-_Vinyl">
      <rect width="1920" height="1080"/>
    </clipPath>
  </defs>
  <g id="Chapter_4_-_Vinyl" data-name="Chapter 4 - Vinyl" clip-path="url(#clip-Chapter_4_-_Vinyl)">
    <rect width="1920" height="1080" fill="#fff"/>
    <rect id="Rectangle_1" data-name="Rectangle 1" width="1920" height="1080" fill="#1A1714"/>
    <g id="Group_165" data-name="Group 165">
      <g id="Terminal" transform="translate(86.071 180.557)">
        <rect id="Shape" width="175.422" height="65.783" rx="32.892" fill="#1A1714" stroke="#e2515c" stroke-linejoin="round" stroke-width="2"/>
      </g>
      <text id="Vinyl" transform="translate(174 221)" fill="#f2f2f2" font-size="21" font-family="OpenSans-Regular, Open Sans"><tspan x="-23.297" y="0">Vinyl</tspan></text>
    </g>
    <g id="_1" data-name="#1" transform="translate(181.782 245.34) rotate(90)">
      <rect id="Rectangle" width="156.075" height="2" transform="translate(1 7)" fill="#e2515c"/>
      <path id="Shape-2" data-name="Shape" d="M1.4.349A1,1,0,0,0,0,1.264V12.736a1,1,0,0,0,1.4.915L14.382,7.915a1,1,0,0,0,0-1.829Z" transform="translate(143.075 1)" fill="#e2515c"/>
    </g>
    <g id="Group_191" data-name="Group 191" transform="translate(-218 40.772)">
      <g id="Process" transform="translate(293.504 370.784)">
        <path id="Shape-3" data-name="Shape" d="M3,0H193.556a3,3,0,0,1,3,3V62.355a0,0,0,0,1,0,0H0a0,0,0,0,1,0,0V3A3,3,0,0,1,3,0Z" fill="#1A1714" stroke="#e2515c" stroke-linejoin="round" stroke-width="2"/>
      </g>
      <text id="View_Records" data-name="View Records" transform="translate(392 409)" fill="#f2f2f2" font-size="20" font-family="OpenSans-Regular, Open Sans"><tspan x="-61.641" y="0">View Records</tspan></text>
    </g>
    <g id="_9" data-name="#9" transform="translate(703.284 750.86)">
      <rect id="Rectangle-2" data-name="Rectangle" width="53" height="2" transform="translate(1 43.157)" fill="#e2515c"/>
      <path id="Line" d="M0,0H-52c-3.314,0-6,1.92-6,4.287V70.027c0,2.368,2.686,4.287,6,4.287H-.823" transform="translate(112 7)" fill="none" stroke="#e2515c" stroke-linecap="round" stroke-miterlimit="10" stroke-width="2"/>
      <path id="Shape-4" data-name="Shape" d="M1.409-.174A1,1,0,0,0,0,.738V13.26a1,1,0,0,0,1.409.913L15.384,7.912a1,1,0,0,0,0-1.825Z" transform="translate(102 74.314)" fill="#e2515c"/>
      <path id="Shape-5" data-name="Shape" d="M1.409-.174A1,1,0,0,0,0,.738V13.26a1,1,0,0,0,1.409.913L15.384,7.912a1,1,0,0,0,0-1.825Z" transform="translate(102)" fill="#e2515c"/>
    </g>
    <g id="_9-2" data-name="#9" transform="translate(704.284 676.74)">
      <rect id="Rectangle-3" data-name="Rectangle" width="53" height="2" transform="translate(0 117.278)" fill="#e2515c"/>
      <path id="Line-2" data-name="Line" d="M0,0H-52c-3.314,0-6,5.735-6,12.809v196.41c0,7.074,2.686,12.809,6,12.809H-.823" transform="translate(111 7.263)" fill="none" stroke="#e2515c" stroke-linecap="round" stroke-miterlimit="10" stroke-width="2"/>
      <path id="Shape-6" data-name="Shape" d="M1.409-.174A1,1,0,0,0,0,.738V13.26a1,1,0,0,0,1.409.913L15.384,7.912a1,1,0,0,0,0-1.825Z" transform="translate(101 222.291)" fill="#e2515c"/>
      <path id="Shape-7" data-name="Shape" d="M1.409-.174A1,1,0,0,0,0,.738V13.26a1,1,0,0,0,1.409.913L15.384,7.912a1,1,0,0,0,0-1.825Z" transform="translate(101 0.263)" fill="#e2515c"/>
    </g>
    <g id="_9-3" data-name="#9" transform="translate(704.284 602.466)">
      <rect id="Rectangle-4" data-name="Rectangle" width="53" height="2" transform="translate(0 191.552)" fill="#e2515c"/>
      <path id="Line-3" data-name="Line" d="M0,0H-52c-3.314,0-6,9.572-6,21.379V349.2c0,11.807,2.686,21.379,6,21.379H-.823" transform="translate(111 7.263)" fill="none" stroke="#e2515c" stroke-linecap="round" stroke-miterlimit="10" stroke-width="2"/>
      <path id="Shape-8" data-name="Shape" d="M1.409-.174A1,1,0,0,0,0,.738V13.26a1,1,0,0,0,1.409.913L15.384,7.912a1,1,0,0,0,0-1.825Z" transform="translate(101 370.838)" fill="#e2515c"/>
      <path id="Shape-9" data-name="Shape" d="M1.409-.174A1,1,0,0,0,0,.738V13.26a1,1,0,0,0,1.409.913L15.384,7.912a1,1,0,0,0,0-1.825Z" transform="translate(101 0.263)" fill="#e2515c"/>
    </g>
    <g id="Group_212" data-name="Group 212" transform="translate(534.224 356.11)">
      <g id="Process-2" data-name="Process" transform="translate(293.504 370.784)">
        <path id="Shape-10" data-name="Shape" d="M3,0H193.556a3,3,0,0,1,3,3V62.355a0,0,0,0,1,0,0H0a0,0,0,0,1,0,0V3A3,3,0,0,1,3,0Z" fill="#1A1714" stroke="#e2515c" stroke-linejoin="round" stroke-width="2"/>
      </g>
      <text id="Access_to_EE_Content" data-name="Access to EE Content" transform="translate(392 409)" fill="#f2f2f2" font-size="19" font-family="OpenSans-Regular, Open Sans"><tspan x="-91.943" y="0">Access to EE Content</tspan></text>
    </g>
    <g id="Group_215" data-name="Group 215" transform="translate(534.224 578.111)">
      <g id="Process-3" data-name="Process" transform="translate(293.504 370.784)">
        <path id="Shape-11" data-name="Shape" d="M3,0H193.556a3,3,0,0,1,3,3V62.355a0,0,0,0,1,0,0H0a0,0,0,0,1,0,0V3A3,3,0,0,1,3,0Z" fill="#1A1714" stroke="#e2515c" stroke-linejoin="round" stroke-width="2"/>
      </g>
      <text id="View_all_Steps" data-name="View all Steps" transform="translate(392 409)" fill="#f2f2f2" font-size="20" font-family="OpenSans-Regular, Open Sans"><tspan x="-63.013" y="0">View all Steps</tspan></text>
    </g>
    <g id="Group_216" data-name="Group 216" transform="translate(534.224 208.111)">
      <g id="Process-4" data-name="Process" transform="translate(293.504 370.784)">
        <path id="Shape-12" data-name="Shape" d="M3,0H193.556a3,3,0,0,1,3,3V62.355a0,0,0,0,1,0,0H0a0,0,0,0,1,0,0V3A3,3,0,0,1,3,0Z" fill="#1A1714" stroke="#e2515c" stroke-linejoin="round" stroke-width="2"/>
      </g>
      <text id="Completed_Vinyl" data-name="Completed Vinyl" transform="translate(392 409)" fill="#f2f2f2" font-size="20" font-family="OpenSans-Regular, Open Sans"><tspan x="-75.972" y="0">Completed Vinyl</tspan></text>
    </g>
    <g id="Group_217" data-name="Group 217" transform="translate(534.224 282.111)">
      <g id="Process-5" data-name="Process" transform="translate(293.504 370.784)">
        <path id="Shape-13" data-name="Shape" d="M3,0H193.556a3,3,0,0,1,3,3V62.355a0,0,0,0,1,0,0H0a0,0,0,0,1,0,0V3A3,3,0,0,1,3,0Z" fill="#1A1714" stroke="#e2515c" stroke-linejoin="round" stroke-width="2"/>
      </g>
      <text id="Username_of_EE_Solver" data-name="Username of EE Solver" transform="translate(392 409)" fill="#f2f2f2" font-size="17" font-family="OpenSans-Regular, Open Sans"><tspan x="-89.64" y="0">Username of EE Solver</tspan></text>
    </g>
    <g id="_1-2" data-name="#1" transform="translate(374.505 223.163) rotate(180)">
      <rect id="Rectangle-5" data-name="Rectangle" width="100.467" height="2" transform="translate(1 7)" fill="#e2515c"/>
      <path id="Shape-14" data-name="Shape" d="M1.4.349A1,1,0,0,0,0,1.264V12.736a1,1,0,0,0,1.4.915L14.382,7.915a1,1,0,0,0,0-1.829Z" transform="translate(87.467 1)" fill="#e2515c"/>
    </g>
    <g id="Group_219" data-name="Group 219" transform="translate(80.001 -186.799)">
      <g id="Process-6" data-name="Process" transform="translate(293.504 370.784)">
        <path id="Shape-15" data-name="Shape" d="M3,0H193.556a3,3,0,0,1,3,3V62.355a0,0,0,0,1,0,0H0a0,0,0,0,1,0,0V3A3,3,0,0,1,3,0Z" fill="#1A1714" stroke="#e2515c" stroke-linejoin="round" stroke-width="2"/>
      </g>
      <text id="Vinyl_Played_on_RP" data-name="Vinyl Played on RP" transform="translate(392 409)" fill="#f2f2f2" font-size="20" font-family="OpenSans-Regular, Open Sans"><tspan x="-85.249" y="0">Vinyl Played on RP</tspan></text>
    </g>
    <g id="Group_" data-name="Group " transform="translate(-257.218 713.456) rotate(-90)">
      <path id="Line-4" data-name="Line" d="M73.544,0H-54.414C-61.365,0-67,8.373-67,18.7V211.955" transform="translate(166 431)" fill="none" stroke="#e2515c" stroke-linecap="round" stroke-miterlimit="10" stroke-width="2"/>
      <path id="Shape-16" data-name="Shape" d="M12.758.138A1,1,0,0,1,14.263,1V15.353a1,1,0,0,1-1.505.863L.495,9.04a1,1,0,0,1,0-1.726Z" transform="translate(90.822 647.218) rotate(-90)" fill="#e2515c"/>
    </g>
    <g id="Group_163" data-name="Group 163" transform="translate(293.079 59.627)">
      <g id="Decision" transform="translate(105.921 479.373)">
        <rect id="Shape-17" data-name="Shape" width="106.774" height="106.774" transform="translate(75.5 0) rotate(45)" fill="#1A1714" stroke="#e2515c" stroke-linejoin="round" stroke-width="2"/>
      </g>
      <text id="Is_EE_Solved_" data-name="Is EE
Solved?" transform="translate(181 549)" fill="#f2f2f2" font-size="20" font-family="OpenSans-Regular, Open Sans"><tspan x="-21.279" y="0">Is EE</tspan><tspan x="-35.098" y="22">Solved?</tspan></text>
    </g>
    <g id="Group_2" data-name="Group " transform="translate(43.501 894.072) rotate(-90)">
      <path id="Line-5" data-name="Line" d="M38.072,0H-57.591C-62.787,0-67,9.077-67,20.275V229.784" transform="translate(166 431)" fill="none" stroke="#e2515c" stroke-linecap="round" stroke-miterlimit="10" stroke-width="2"/>
    </g>
    <g id="Group_3" data-name="Group " transform="translate(584.53 383.838) rotate(90)">
      <path id="Line-6" data-name="Line" d="M147.984,105.766H13.252C5.933,105.766,0,101.588,0,96.434V0" transform="translate(8.178 4.263)" fill="none" stroke="#e2515c" stroke-linecap="round" stroke-miterlimit="10" stroke-width="2"/>
    </g>
    <g id="Group_4" data-name="Group " transform="translate(623.71 392.016) rotate(180)">
      <path id="Line-7" data-name="Line" d="M101.709,0H9.108A8.837,8.837,0,0,0,0,8.539V96.771" transform="translate(0 0)" fill="none" stroke="#e2515c" stroke-linecap="round" stroke-miterlimit="10" stroke-width="2"/>
    </g>
    <g id="Group_5" data-name="Group " transform="translate(821.259 235.647) rotate(90)">
      <path id="Line-8" data-name="Line" d="M79.8,192.027H7.146C3.2,192.027,0,184.441,0,175.083V0" transform="translate(0 5.523)" fill="none" stroke="#e2515c" stroke-linecap="round" stroke-miterlimit="10" stroke-width="2"/>
      <path id="Shape-18" data-name="Shape" d="M1.409.089A1,1,0,0,0,0,1V13.522a1,1,0,0,0,1.409.913L15.384,8.174a1,1,0,0,0,0-1.825Z" transform="translate(59.598 15.975) rotate(-90)" fill="#e2515c"/>
    </g>
    <g id="_9-4" data-name="#9" transform="translate(703.284 156.248)">
      <path id="Line-9" data-name="Line" d="M0,0H-52c-3.314,0-6,3.722-6,8.314V135.8c0,4.592,2.686,8.314,6,8.314H-.822" transform="translate(112 2.15)" fill="none" stroke="#e2515c" stroke-linecap="round" stroke-miterlimit="10" stroke-width="2"/>
      <path id="Shape-19" data-name="Shape" d="M1.409-.174A1,1,0,0,0,0,.738V13.26a1,1,0,0,0,1.409.913L15.384,7.912a1,1,0,0,0,0-1.825Z" transform="translate(102 72.108)" fill="#e2515c"/>
      <path id="Shape-20" data-name="Shape" d="M1.409-.174A1,1,0,0,0,0,.738V13.26a1,1,0,0,0,1.409.913L15.384,7.912a1,1,0,0,0,0-1.825Z" transform="translate(102 -4.85)" fill="#e2515c"/>
      <path id="Line-10" data-name="Line" d="M-58,66.3v74.931c0,5.349,2.686,9.685,6,9.685H-.822" transform="translate(112 67.127)" fill="none" stroke="#e2515c" stroke-linecap="round" stroke-miterlimit="10" stroke-width="2"/>
      <path id="Shape-21" data-name="Shape" d="M1.409-.174A1,1,0,0,0,0,.738V13.26a1,1,0,0,0,1.409.913L15.384,7.912a1,1,0,0,0,0-1.825Z" transform="translate(102 211.046)" fill="#e2515c"/>
    </g>
    <g id="Group_226" data-name="Group 226" transform="translate(534.224 -242.933)">
      <g id="Process-7" data-name="Process" transform="translate(293.504 370.784)">
        <path id="Shape-22" data-name="Shape" d="M3,0H193.556a3,3,0,0,1,3,3V62.355a0,0,0,0,1,0,0H0a0,0,0,0,1,0,0V3A3,3,0,0,1,3,0Z" fill="#1A1714" stroke="#e2515c" stroke-linejoin="round" stroke-width="2"/>
      </g>
      <text id="_of_EE_Complete" data-name="% of EE Complete" transform="translate(392 409)" fill="#f2f2f2" font-size="20" font-family="OpenSans-Regular, Open Sans"><tspan x="-81.636" y="0">% of EE Complete</tspan></text>
    </g>
    <g id="Group_227" data-name="Group 227" transform="translate(534.224 -171.87)">
      <g id="Process-8" data-name="Process" transform="translate(293.504 370.784)">
        <path id="Shape-23" data-name="Shape" d="M3,0H193.556a3,3,0,0,1,3,3V62.355a0,0,0,0,1,0,0H0a0,0,0,0,1,0,0V3A3,3,0,0,1,3,0Z" fill="#1A1714" stroke="#e2515c" stroke-linejoin="round" stroke-width="2"/>
      </g>
      <text id="Current_Step" data-name="Current Step" transform="translate(392 409)" fill="#f2f2f2" font-size="20" font-family="OpenSans-Regular, Open Sans"><tspan x="-59.043" y="0">Current Step</tspan></text>
    </g>
    <g id="Group_228" data-name="Group 228" transform="translate(534.224 -100.807)">
      <g id="Process-9" data-name="Process" transform="translate(293.504 370.784)">
        <path id="Shape-24" data-name="Shape" d="M3,0H193.556a3,3,0,0,1,3,3V62.355a0,0,0,0,1,0,0H0a0,0,0,0,1,0,0V3A3,3,0,0,1,3,0Z" fill="#1A1714" stroke="#e2515c" stroke-linejoin="round" stroke-width="2"/>
      </g>
      <text id="About" transform="translate(392 409)" fill="#f2f2f2" font-size="20" font-family="OpenSans-Regular, Open Sans"><tspan x="-28.164" y="0">About</tspan></text>
    </g>
    <g id="Group_229" data-name="Group 229" transform="translate(534.224 -29.744)">
      <g id="Process-10" data-name="Process" transform="translate(293.504 370.784)">
        <path id="Shape-25" data-name="Shape" d="M3,0H193.556a3,3,0,0,1,3,3V62.355a0,0,0,0,1,0,0H0a0,0,0,0,1,0,0V3A3,3,0,0,1,3,0Z" fill="#1A1714" stroke="#e2515c" stroke-linejoin="round" stroke-width="2"/>
      </g>
      <text id="Related_Content" data-name="Related Content" transform="translate(392 409)" fill="#f2f2f2" font-size="20" font-family="OpenSans-Regular, Open Sans"><tspan x="-75.044" y="0">Related Content</tspan></text>
    </g>
    <g id="Group_230" data-name="Group 230" transform="translate(752.224 430.11)">
      <g id="Predefined_Process" data-name="Predefined Process" transform="translate(75.504 370.784)">
        <rect id="Shape-26" data-name="Shape" width="196.556" height="62.355" fill="#1A1714" stroke="#e2515c" stroke-linejoin="round" stroke-width="2"/>
        <rect id="Shape-27" data-name="Shape" width="20.785" height="62.355" fill="#1A1714" stroke="#e2515c" stroke-linejoin="round" stroke-width="2"/>
        <rect id="Shape-28" data-name="Shape" width="20.785" height="62.355" transform="translate(175.771)" fill="#1A1714" stroke="#e2515c" stroke-linejoin="round" stroke-width="2"/>
      </g>
      <text id="Related_Content-2" data-name="Related Content" transform="translate(174 409)" fill="#f2f2f2" font-size="20" font-family="OpenSans-Regular, Open Sans"><tspan x="-75.044" y="0">Related Content</tspan></text>
    </g>
    <g id="_1-3" data-name="#1" transform="translate(1023.284 750.072)">
      <g id="Group_176" data-name="Group 176" transform="translate(1 -0.177)">
        <rect id="Rectangle-6" data-name="Rectangle" width="81.783" height="2" transform="translate(0 7.177)" fill="#e2515c"/>
        <path id="Shape-29" data-name="Shape" d="M12.758.138A1,1,0,0,1,14.263,1V15.353a1,1,0,0,1-1.505.863L.495,9.04a1,1,0,0,1,0-1.726Z" transform="translate(84.223 16.354) rotate(180)" fill="#e2515c"/>
      </g>
    </g>
    <g id="Group_231" data-name="Group 231" transform="translate(752.224 504.11)">
      <g id="Predefined_Process-2" data-name="Predefined Process" transform="translate(75.504 370.784)">
        <rect id="Shape-30" data-name="Shape" width="196.556" height="62.355" fill="#1A1714" stroke="#e2515c" stroke-linejoin="round" stroke-width="2"/>
        <rect id="Shape-31" data-name="Shape" width="20.785" height="62.355" fill="#1A1714" stroke="#e2515c" stroke-linejoin="round" stroke-width="2"/>
        <rect id="Shape-32" data-name="Shape" width="20.785" height="62.355" transform="translate(175.771)" fill="#1A1714" stroke="#e2515c" stroke-linejoin="round" stroke-width="2"/>
      </g>
      <text id="About-2" data-name="About" transform="translate(174 409)" fill="#f2f2f2" font-size="20" font-family="OpenSans-Regular, Open Sans"><tspan x="-28.164" y="0">About</tspan></text>
    </g>
    <g id="Group_232" data-name="Group 232" transform="translate(824.224 356.11)">
      <g id="Process-11" data-name="Process" transform="translate(293.504 370.784)">
        <path id="Shape-33" data-name="Shape" d="M3,0H193.556a3,3,0,0,1,3,3V62.355a0,0,0,0,1,0,0H0a0,0,0,0,1,0,0V3A3,3,0,0,1,3,0Z" fill="#1A1714" stroke="#e2515c" stroke-linejoin="round" stroke-width="2"/>
      </g>
      <text id="View_or_listen" data-name="View or listen" transform="translate(392 409)" fill="#f2f2f2" font-size="19" font-family="OpenSans-Regular, Open Sans"><tspan x="-58.99" y="0">View or listen</tspan></text>
    </g>
    <g id="_1-4" data-name="#1" transform="translate(1023.284 972.072)">
      <g id="Group_176-2" data-name="Group 176" transform="translate(1 -0.177)">
        <rect id="Rectangle-7" data-name="Rectangle" width="81.783" height="2" transform="translate(0 7.177)" fill="#e2515c"/>
        <path id="Shape-34" data-name="Shape" d="M12.758.138A1,1,0,0,1,14.263,1V15.353a1,1,0,0,1-1.505.863L.495,9.04a1,1,0,0,1,0-1.726Z" transform="translate(84.223 16.354) rotate(180)" fill="#e2515c"/>
      </g>
    </g>
    <g id="Group_233" data-name="Group 233" transform="translate(1031.657 768.338)">
      <g id="Terminal-2" data-name="Terminal" transform="translate(86.071 180.557)">
        <rect id="Shape-35" data-name="Shape" width="175.422" height="65.783" rx="32.892" fill="#1A1714" stroke="#e2515c" stroke-linejoin="round" stroke-width="2"/>
      </g>
      <text id="Easter_Eggs" data-name="Easter Eggs" transform="translate(174 221)" fill="#f2f2f2" font-size="21" font-family="OpenSans-Regular, Open Sans"><tspan x="-55.653" y="0">Easter Eggs</tspan></text>
    </g>
    <g id="_1-5" data-name="#1" transform="translate(1023.284 151.029)">
      <g id="Group_176-3" data-name="Group 176" transform="translate(1 -0.177)">
        <rect id="Rectangle-8" data-name="Rectangle" width="81.783" height="2" transform="translate(0 7.177)" fill="#e2515c"/>
        <path id="Shape-36" data-name="Shape" d="M12.758.138A1,1,0,0,1,14.263,1V15.353a1,1,0,0,1-1.505.863L.495,9.04a1,1,0,0,1,0-1.726Z" transform="translate(84.223 16.354) rotate(180)" fill="#e2515c"/>
      </g>
    </g>
    <g id="Group_234" data-name="Group 234" transform="translate(824.224 -242.933)">
      <g id="Process-12" data-name="Process" transform="translate(293.504 370.784)">
        <path id="Shape-37" data-name="Shape" d="M3,0H193.556a3,3,0,0,1,3,3V62.355a0,0,0,0,1,0,0H0a0,0,0,0,1,0,0V3A3,3,0,0,1,3,0Z" fill="#1A1714" stroke="#e2515c" stroke-linejoin="round" stroke-width="2"/>
      </g>
      <text id="View_EE" data-name="View EE" transform="translate(392 409)" fill="#f2f2f2" font-size="19" font-family="OpenSans-Regular, Open Sans"><tspan x="-33.621" y="0">View EE</tspan></text>
    </g>
    <g id="_1-6" data-name="#1" transform="translate(1023.284 293.155)">
      <g id="Group_176-4" data-name="Group 176" transform="translate(1 -0.177)">
        <rect id="Rectangle-9" data-name="Rectangle" width="81.783" height="2" transform="translate(0 7.177)" fill="#e2515c"/>
        <path id="Shape-38" data-name="Shape" d="M12.758.138A1,1,0,0,1,14.263,1V15.353a1,1,0,0,1-1.505.863L.495,9.04a1,1,0,0,1,0-1.726Z" transform="translate(84.223 16.354) rotate(180)" fill="#e2515c"/>
      </g>
    </g>
    <g id="Group_235" data-name="Group 235" transform="translate(824.224 -100.807)">
      <g id="Process-13" data-name="Process" transform="translate(293.504 370.784)">
        <path id="Shape-39" data-name="Shape" d="M3,0H193.556a3,3,0,0,1,3,3V62.355a0,0,0,0,1,0,0H0a0,0,0,0,1,0,0V3A3,3,0,0,1,3,0Z" fill="#1A1714" stroke="#e2515c" stroke-linejoin="round" stroke-width="2"/>
      </g>
      <text id="View_Description" data-name="View Description" transform="translate(392 409)" fill="#f2f2f2" font-size="19" font-family="OpenSans-Regular, Open Sans"><tspan x="-73.792" y="0">View Description</tspan></text>
    </g>
    <g id="_1-7" data-name="#1" transform="translate(1313.284 151.028)">
      <g id="Group_176-5" data-name="Group 176" transform="translate(1 -0.177)">
        <rect id="Rectangle-10" data-name="Rectangle" width="81.783" height="2" transform="translate(0 7.177)" fill="#e2515c"/>
        <path id="Shape-40" data-name="Shape" d="M12.758.138A1,1,0,0,1,14.263,1V15.353a1,1,0,0,1-1.505.863L.495,9.04a1,1,0,0,1,0-1.726Z" transform="translate(84.223 16.354) rotate(180)" fill="#e2515c"/>
      </g>
    </g>
    <g id="Group_236" data-name="Group 236" transform="translate(1321.657 -54.419)">
      <g id="Terminal-3" data-name="Terminal" transform="translate(86.071 180.557)">
        <rect id="Shape-41" data-name="Shape" width="175.422" height="65.783" rx="32.892" fill="#1A1714" stroke="#e2515c" stroke-linejoin="round" stroke-width="2"/>
      </g>
      <text id="Easter_Eggs-2" data-name="Easter Eggs" transform="translate(174 221)" fill="#f2f2f2" font-size="21" font-family="OpenSans-Regular, Open Sans"><tspan x="-55.653" y="0">Easter Eggs</tspan></text>
    </g>
    <g id="Group_170" data-name="Group 170" transform="translate(831.439 -323.067)">
      <g id="Output" transform="translate(286.289 521.982)">
        <path id="Shape-42" data-name="Shape" d="M24.086,0H216.772L192.686,62.355H0Z" fill="#1A1714" stroke="#e2515c" stroke-linejoin="round" stroke-width="2"/>
      </g>
      <text id="Select_Photo" data-name="Select Photo" transform="translate(392 561.37)" fill="#f2f2f2" font-size="20" font-family="OpenSans-Regular, Open Sans"><tspan x="-57.896" y="0">Select Photo</tspan></text>
    </g>
    <g id="_1-8" data-name="#1" transform="translate(1023.284 227.647)">
      <g id="Group_176-6" data-name="Group 176" transform="translate(1 -6.177)">
        <rect id="Rectangle-11" data-name="Rectangle" width="95.287" height="2" transform="translate(0 7.177)" fill="#e2515c"/>
        <path id="Shape-43" data-name="Shape" d="M12.758.138A1,1,0,0,1,14.263,1V15.353a1,1,0,0,1-1.505.863L.495,9.04a1,1,0,0,1,0-1.726Z" transform="translate(97.716 16.354) rotate(180)" fill="#e2515c"/>
      </g>
    </g>
    <g id="_1-9" data-name="#1" transform="translate(1320.284 223.805)">
      <g id="Group_176-7" data-name="Group 176" transform="translate(1 -0.177)">
        <rect id="Rectangle-12" data-name="Rectangle" width="81.783" height="2" transform="translate(0 7.177)" fill="#e2515c"/>
        <path id="Shape-44" data-name="Shape" d="M12.758.138A1,1,0,0,1,14.263,1V15.353a1,1,0,0,1-1.505.863L.495,9.04a1,1,0,0,1,0-1.726Z" transform="translate(84.223 16.354) rotate(180)" fill="#e2515c"/>
      </g>
    </g>
    <g id="Group_237" data-name="Group 237" transform="translate(1321.657 18.358)">
      <g id="Terminal-4" data-name="Terminal" transform="translate(86.071 180.557)">
        <rect id="Shape-45" data-name="Shape" width="175.422" height="65.783" rx="32.892" fill="#1A1714" stroke="#e2515c" stroke-linejoin="round" stroke-width="2"/>
      </g>
      <text id="Easter_Eggs-3" data-name="Easter Eggs" transform="translate(174 221)" fill="#f2f2f2" font-size="21" font-family="OpenSans-Regular, Open Sans"><tspan x="-55.653" y="0">Easter Eggs</tspan></text>
    </g>
    <g id="Group_6" data-name="Group " transform="translate(1314.284 523.137) rotate(90)">
      <path id="Shape-46" data-name="Shape" d="M1.409.089A1,1,0,0,0,0,1V13.522a1,1,0,0,0,1.409.913L15.384,8.174a1,1,0,0,0,0-1.825Z" transform="translate(0 15.975) rotate(-90)" fill="#e2515c"/>
    </g>
    <g id="_9-5" data-name="#9" transform="translate(1196.309 377.331)">
      <path id="Line-11" data-name="Line" d="M0,0H-52c-3.314,0-6,3.9-6,8.707v133.5c0,4.809,2.686,8.707,6,8.707H-.822" transform="translate(112 2.15)" fill="none" stroke="#e2515c" stroke-linecap="round" stroke-miterlimit="10" stroke-width="2"/>
      <path id="Shape-47" data-name="Shape" d="M1.409-.174A1,1,0,0,0,0,.738V13.26a1,1,0,0,0,1.409.913L15.384,7.912a1,1,0,0,0,0-1.825Z" transform="translate(102 71.936)" fill="#e2515c"/>
      <path id="Shape-48" data-name="Shape" d="M1.409-.174A1,1,0,0,0,0,.738V13.26a1,1,0,0,0,1.409.913L15.384,7.912a1,1,0,0,0,0-1.825Z" transform="translate(102 -4.85)" fill="#e2515c"/>
      <path id="Line-12" data-name="Line" d="M-58,66.3v83.038c0,5.927,2.686,10.733,6,10.733H-.822" transform="translate(112 67.127)" fill="none" stroke="#e2515c" stroke-linecap="round" stroke-miterlimit="10" stroke-width="2"/>
      <path id="Shape-49" data-name="Shape" d="M1.409-.174A1,1,0,0,0,0,.738V13.26a1,1,0,0,0,1.409.913L15.384,7.912a1,1,0,0,0,0-1.825Z" transform="translate(102.001 220.202)" fill="#e2515c"/>
    </g>
    <path id="Line-13" data-name="Line" d="M72.212,0H6.467C2.9,0,0,7.586,0,16.944V192.027" transform="translate(1116.734 456.358) rotate(-90)" fill="none" stroke="#e2515c" stroke-linecap="round" stroke-miterlimit="10" stroke-width="2"/>
    <g id="Group_7" data-name="Group " transform="translate(1116.734 448.819) rotate(180)">
      <path id="Line-14" data-name="Line" d="M92.45,71.078H8.279C3.707,71.078,0,68.27,0,64.806V0" transform="translate(0 5.523)" fill="none" stroke="#e2515c" stroke-linecap="round" stroke-miterlimit="10" stroke-width="2"/>
    </g>
    <g id="Group_238" data-name="Group 238" transform="translate(1027.249 -22.544)">
      <g id="Process-14" data-name="Process" transform="translate(293.504 370.784)">
        <path id="Shape-50" data-name="Shape" d="M3,0H193.556a3,3,0,0,1,3,3V62.355a0,0,0,0,1,0,0H0a0,0,0,0,1,0,0V3A3,3,0,0,1,3,0Z" fill="#1A1714" stroke="#e2515c" stroke-linejoin="round" stroke-width="2"/>
      </g>
      <text id="Music_Videos" data-name="Music Videos" transform="translate(392 409)" fill="#f2f2f2" font-size="20" font-family="OpenSans-Regular, Open Sans"><tspan x="-60.854" y="0">Music Videos</tspan></text>
    </g>
    <g id="Group_239" data-name="Group 239" transform="translate(1027.249 54.468)">
      <g id="Process-15" data-name="Process" transform="translate(293.504 370.784)">
        <path id="Shape-51" data-name="Shape" d="M3,0H193.556a3,3,0,0,1,3,3V62.355a0,0,0,0,1,0,0H0a0,0,0,0,1,0,0V3A3,3,0,0,1,3,0Z" fill="#1A1714" stroke="#e2515c" stroke-linejoin="round" stroke-width="2"/>
      </g>
      <text id="BTS" transform="translate(392 409)" fill="#f2f2f2" font-size="20" font-family="OpenSans-Regular, Open Sans"><tspan x="-17.202" y="0">BTS</tspan></text>
    </g>
    <g id="Group_240" data-name="Group 240" transform="translate(1027.249 128.468)">
      <g id="Process-16" data-name="Process" transform="translate(293.504 370.784)">
        <path id="Shape-52" data-name="Shape" d="M3,0H193.556a3,3,0,0,1,3,3V62.355a0,0,0,0,1,0,0H0a0,0,0,0,1,0,0V3A3,3,0,0,1,3,0Z" fill="#1A1714" stroke="#e2515c" stroke-linejoin="round" stroke-width="2"/>
      </g>
      <text id="Live_Concerts" data-name="Live Concerts" transform="translate(392 409)" fill="#f2f2f2" font-size="20" font-family="OpenSans-Regular, Open Sans"><tspan x="-62.178" y="0">Live Concerts</tspan></text>
    </g>
    <g id="Group_241" data-name="Group 241" transform="translate(1027.249 202.468)">
      <g id="Process-17" data-name="Process" transform="translate(293.504 370.784)">
        <path id="Shape-53" data-name="Shape" d="M3,0H193.556a3,3,0,0,1,3,3V62.355a0,0,0,0,1,0,0H0a0,0,0,0,1,0,0V3A3,3,0,0,1,3,0Z" fill="#1A1714" stroke="#e2515c" stroke-linejoin="round" stroke-width="2"/>
      </g>
      <text id="Artwork" transform="translate(392 409)" fill="#f2f2f2" font-size="20" font-family="OpenSans-Regular, Open Sans"><tspan x="-37.09" y="0">Artwork</tspan></text>
    </g>
  </g>
</svg>
